<svg width="1920" height="1080" viewBox="0 0 1920 1080" fill="none" xmlns="http://www.w3.org/2000/svg">
<rect width="1920" height="1080" fill="white"/>
<mask id="mask0" mask-type="alpha" maskUnits="userSpaceOnUse" x="0" y="0" width="1920" height="1080">
<rect width="1920" height="1080" fill="#C4C4C4"/>
</mask>
<g mask="url(#mask0)">
<rect y="-9" width="1920" height="1099" fill="url(#paint0_linear)"/>
<path d="M415.342 254.815C628.669 191.614 637.178 39.8843 628.669 0.459309C589.734 -356.98 193.951 -183.533 36.3811 -93.9124C-445.255 308.494 -280.786 603.444 -124.158 741.315C-67.5299 791.162 109.342 823.815 186.251 622.748C243.342 447.315 167.031 328.382 415.342 254.815Z" fill="url(#paint1_linear)"/>
<path d="M1341.55 895.215C1158.69 915.449 996.41 1028.41 977.079 1209.66C928.325 1666.79 1352.23 1633.41 1586.38 1577.1C2357.11 1237.46 2251.22 707.656 2046.38 523.205C1956.74 442.482 1705.3 437.691 1637.47 659.628C1587.34 882.271 1478.16 880.1 1341.55 895.215Z" fill="url(#paint2_linear)"/>
<circle cx="1310.5" cy="577.5" r="295.5" fill="#F07431" fill-opacity="0.7"/>
<path d="M1401.77 505.54H1203.47C1198.47 505.54 1194.37 501.44 1194.37 496.44V392.74C1194.37 387.74 1198.47 383.64 1203.47 383.64H1401.77C1406.77 383.64 1410.87 387.74 1410.87 392.74V496.44C1410.87 501.44 1406.77 505.54 1401.77 505.54Z" fill="#F9F9F7"/>
<path d="M1557.07 572.24H1431.57C1426.57 572.24 1422.47 568.14 1422.47 563.14V462.14C1422.47 457.14 1426.57 453.04 1431.57 453.04H1557.07C1562.07 453.04 1566.17 457.14 1566.17 462.14V563.14C1566.17 568.14 1562.07 572.24 1557.07 572.24Z" fill="#F9F9F7"/>
<path d="M1507.97 725.04H1311.47C1306.47 725.04 1302.37 720.94 1302.37 715.94V596.74C1302.37 591.74 1306.47 587.64 1311.47 587.64H1507.97C1512.97 587.64 1517.07 591.74 1517.07 596.74V715.94C1517.07 720.94 1512.97 725.04 1507.97 725.04Z" fill="#F9F9F7"/>
<path d="M1276.37 726.84H1188.37C1183.07 726.84 1178.67 722.54 1178.67 717.14V581.94C1178.67 576.64 1182.97 572.24 1188.37 572.24H1276.37C1281.67 572.24 1286.07 576.54 1286.07 581.94V717.24C1285.97 722.54 1281.67 726.84 1276.37 726.84Z" fill="#F9F9F7"/>
<path d="M1256.27 463.74L1277.94 432.99L1336.67 429.74L1351.37 445.74L1366.67 464.74L1384.47 424.54" stroke="#004AC8" stroke-miterlimit="10"/>
<path d="M1298.6 542.2H1173.1C1168.1 542.2 1164 538.1 1164 533.1V432.1C1164 427.1 1168.1 423 1173.1 423H1298.6C1303.6 423 1307.7 427.1 1307.7 432.1V533.1C1307.7 538.1 1303.7 542.2 1298.6 542.2Z" fill="#EEDDDD"/>
<path d="M1296.7 544.2H1171.1C1166.1 544.2 1162 540.1 1162 535.1V434.1C1162 429.1 1166.1 425 1171.1 425H1296.6C1301.6 425 1305.7 429.1 1305.7 434.1V535.1C1305.8 540.1 1301.7 544.2 1296.7 544.2Z" fill="#F9F9F7"/>
<path d="M1191.57 461.14V523.94H1277.07" stroke="#004AC8" stroke-miterlimit="10"/>
<path d="M1305.7 448.6H1162V434.3C1162 429.2 1166.2 425 1171.29 425H1296.31C1301.4 425 1305.6 429.2 1305.6 434.3V448.6H1305.7Z" fill="#B5D7FA"/>
<path opacity="0.6" d="M1338.27 643.14C1350.58 643.14 1360.57 633.156 1360.57 620.84C1360.57 608.524 1350.58 598.54 1338.27 598.54C1325.95 598.54 1315.97 608.524 1315.97 620.84C1315.97 633.156 1325.95 643.14 1338.27 643.14Z" fill="#6CE5FF"/>
<path d="M1213.57 482.44C1210.57 482.44 1208.07 484.94 1208.07 487.94V513.44C1208.07 516.44 1210.57 518.94 1213.57 518.94C1216.57 518.94 1219.07 516.44 1219.07 513.44V487.94C1219.07 484.94 1216.57 482.44 1213.57 482.44Z" fill="#BFD9FE"/>
<path d="M1233.57 490.64C1230.57 490.64 1228.07 493.14 1228.07 496.14V513.44C1228.07 516.44 1230.57 518.94 1233.57 518.94C1236.57 518.94 1239.07 516.44 1239.07 513.44V496.14C1239.07 493.04 1236.57 490.64 1233.57 490.64Z" fill="#BFD9FE"/>
<path d="M1253.57 466.94C1250.57 466.94 1248.07 469.44 1248.07 472.44V513.34C1248.07 516.34 1250.57 518.84 1253.57 518.84C1256.57 518.84 1259.07 516.34 1259.07 513.34V472.44C1259.07 469.44 1256.57 466.94 1253.57 466.94Z" fill="#BFD9FE"/>
<path d="M1351.47 449.14C1352.96 449.14 1354.17 447.931 1354.17 446.44C1354.17 444.949 1352.96 443.74 1351.47 443.74C1349.98 443.74 1348.77 444.949 1348.77 446.44C1348.77 447.931 1349.98 449.14 1351.47 449.14Z" fill="#734DED"/>
<path d="M1366.87 467.94C1368.36 467.94 1369.57 466.731 1369.57 465.24C1369.57 463.749 1368.36 462.54 1366.87 462.54C1365.38 462.54 1364.17 463.749 1364.17 465.24C1364.17 466.731 1365.38 467.94 1366.87 467.94Z" fill="#BFD9FE"/>
<path d="M1335.87 432.94C1337.36 432.94 1338.57 431.731 1338.57 430.24C1338.57 428.749 1337.36 427.54 1335.87 427.54C1334.38 427.54 1333.17 428.749 1333.17 430.24C1333.17 431.731 1334.38 432.94 1335.87 432.94Z" fill="#BFD9FE"/>
<path d="M1384.47 427.24C1385.96 427.24 1387.17 426.031 1387.17 424.54C1387.17 423.049 1385.96 421.84 1384.47 421.84C1382.98 421.84 1381.77 423.049 1381.77 424.54C1381.77 426.031 1382.98 427.24 1384.47 427.24Z" fill="#734DED"/>
<path d="M1448.37 513.74H1540.27" stroke="#004AC8" stroke-miterlimit="10" stroke-linecap="round" stroke-linejoin="round"/>
<path d="M1448.37 527.84H1540.27" stroke="#004AC8" stroke-miterlimit="10" stroke-linecap="round" stroke-linejoin="round"/>
<path d="M1448.37 541.94H1540.27" stroke="#004AC8" stroke-miterlimit="10" stroke-linecap="round" stroke-linejoin="round"/>
<path d="M1448.37 556.04H1540.27" stroke="#004AC8" stroke-miterlimit="10" stroke-linecap="round" stroke-linejoin="round"/>
<path d="M1316.47 651.14H1437.87" stroke="#87BCFE" stroke-miterlimit="10"/>
<path d="M1316.47 665.24H1437.87" stroke="#87BCFE" stroke-miterlimit="10"/>
<path d="M1316.47 679.34H1437.87" stroke="#87BCFE" stroke-miterlimit="10"/>
<path d="M1338.27 618.04C1340.75 618.04 1342.77 616.025 1342.77 613.54C1342.77 611.055 1340.75 609.04 1338.27 609.04C1335.78 609.04 1333.77 611.055 1333.77 613.54C1333.77 616.025 1335.78 618.04 1338.27 618.04Z" stroke="#F9F9F7" stroke-miterlimit="10"/>
<path d="M1349.77 632.74V627.74C1349.77 624.24 1345.77 621.34 1340.77 621.34H1335.77C1330.87 621.34 1326.77 624.24 1326.77 627.74V632.74" stroke="#F9F9F7" stroke-miterlimit="10"/>
<path opacity="0.5" d="M1540.17 504.04H1449.47C1448.17 504.04 1447.07 502.94 1447.07 501.64V470.04C1447.07 468.74 1448.17 467.64 1449.47 467.64H1540.17C1541.47 467.64 1542.57 468.74 1542.57 470.04V501.64C1542.57 502.94 1541.47 504.04 1540.17 504.04Z" fill="#BFD9FE"/>
<path opacity="0.5" d="M1498.77 639.54H1372.47C1370.87 639.54 1369.67 638.24 1369.67 636.74V606.04C1369.67 604.44 1370.97 603.24 1372.47 603.24H1498.77C1500.37 603.24 1501.57 604.54 1501.57 606.04V636.74C1501.57 638.24 1500.37 639.54 1498.77 639.54Z" fill="#BFD9FE"/>
<path d="M1494 645L1489 639H1494V645Z" fill="#DCE9FA" stroke="#DCE9FA" stroke-linecap="round" stroke-linejoin="round"/>
<path d="M1502.57 487.44L1496.67 490.94L1490.67 494.34V487.44V480.54L1496.67 484.04L1502.57 487.44Z" fill="#87BCFE"/>
<circle cx="1231.5" cy="603.5" r="16.8808" fill="#F9F9F7"/>
<path d="M1245.85 603.5C1245.85 611.423 1239.42 617.846 1231.5 617.846C1223.58 617.846 1217.15 611.423 1217.15 603.5C1217.15 595.577 1223.58 589.154 1231.5 589.154C1239.42 589.154 1245.85 595.577 1245.85 603.5Z" stroke="#536AF4" stroke-opacity="0.6" stroke-width="2" stroke-linecap="round" stroke-linejoin="round"/>
<path d="M1225.36 601.044C1226.38 601.044 1227.2 600.22 1227.2 599.203C1227.2 598.186 1226.38 597.361 1225.36 597.361C1224.34 597.361 1223.52 598.186 1223.52 599.203C1223.52 600.22 1224.34 601.044 1225.36 601.044Z" fill="#536AF4" fill-opacity="0.6"/>
<path d="M1237.02 601.044C1238.04 601.044 1238.87 600.22 1238.87 599.203C1238.87 598.186 1238.04 597.361 1237.02 597.361C1236.01 597.361 1235.18 598.186 1235.18 599.203C1235.18 600.22 1236.01 601.044 1237.02 601.044Z" fill="#536AF4" fill-opacity="0.6"/>
<path d="M1238.87 605.341C1238.87 608.731 1235.57 611.48 1231.5 611.48C1227.43 611.48 1224.13 608.731 1224.13 605.341" stroke="#536AF4" stroke-opacity="0.6" stroke-width="2" stroke-linecap="round" stroke-linejoin="round"/>
<path d="M1231.18 599.967L1229.8 604.618L1231.71 604.556" stroke="#536AF4" stroke-opacity="0.6" stroke-width="2" stroke-linecap="round" stroke-linejoin="round"/>
<path d="M1202.17 629.44H1261.17" stroke="#87BCFE" stroke-miterlimit="10"/>
<path d="M1222.17 643.54H1261.17" stroke="#87BCFE" stroke-miterlimit="10"/>
<path d="M1222.17 657.64H1261.17" stroke="#87BCFE" stroke-miterlimit="10"/>
<path d="M1535.08 399.533L1509.45 391.281L1478.76 403.441L1499.61 386.649L1481.66 379.99L1437.94 431.09L1535.08 399.533Z" fill="#536AF4"/>
<path d="M1499.75 386.649L1478.91 403.441L1499.75 395.045V386.649Z" fill="black"/>
<path d="M1158.96 542.163C1099.15 575.92 983.754 652.499 983.483 711.318C983.421 720.729 985.281 725.853 988.87 729.78" stroke="#536AF4" stroke-width="2" stroke-linecap="round" stroke-linejoin="round" stroke-dasharray="2 5"/>
<path d="M992.235 732.839C992.337 732.937 992.539 733.033 992.641 733.131" stroke="#536AF4" stroke-width="2" stroke-linecap="round" stroke-linejoin="round" stroke-dasharray="2 5"/>
<path d="M1152.97 689.24H1076.37C1073.17 689.24 1070.57 686.64 1070.57 683.44V573.24C1070.57 570.04 1073.17 567.44 1076.37 567.44H1152.97C1156.17 567.44 1158.77 570.04 1158.77 573.24V683.54C1158.77 686.64 1156.17 689.24 1152.97 689.24Z" fill="#F9F9F7"/>
<circle cx="1332.93" cy="411.926" r="11.9472" transform="rotate(-0.659827 1332.93 411.926)" fill="#F9F9F7"/>
<path d="M1343.09 411.809C1343.15 417.42 1338.65 422.022 1333.04 422.086C1327.43 422.151 1322.83 417.654 1322.76 412.043C1322.7 406.431 1327.2 401.83 1332.81 401.765C1338.42 401.701 1343.02 406.197 1343.09 411.809Z" stroke="#536AF4" stroke-opacity="0.5" stroke-width="1.4" stroke-linecap="round" stroke-linejoin="round"/>
<path d="M1328.56 410.238C1329.28 410.23 1329.86 409.639 1329.85 408.92C1329.84 408.2 1329.25 407.623 1328.53 407.631C1327.81 407.64 1327.23 408.23 1327.24 408.95C1327.25 409.669 1327.84 410.246 1328.56 410.238Z" fill="#536AF4" fill-opacity="0.5"/>
<path d="M1336.82 410.143C1337.53 410.135 1338.11 409.545 1338.1 408.825C1338.1 408.105 1337.5 407.528 1336.79 407.537C1336.07 407.545 1335.49 408.135 1335.5 408.855C1335.51 409.575 1336.1 410.152 1336.82 410.143Z" fill="#536AF4" fill-opacity="0.5"/>
<path d="M1338.15 413.169C1338.18 415.568 1335.87 417.54 1332.99 417.573C1330.11 417.606 1327.76 415.688 1327.73 413.289" stroke="#536AF4" stroke-opacity="0.5" stroke-width="1.4" stroke-linecap="round" stroke-linejoin="round"/>
<path d="M1332.67 409.428L1331.73 412.731L1333.08 412.671" stroke="#536AF4" stroke-opacity="0.5" stroke-width="1.4" stroke-linecap="round" stroke-linejoin="round"/>
<path d="M1092.5 628C1097.19 628 1101 624.194 1101 619.5C1101 614.806 1097.19 611 1092.5 611C1087.81 611 1084 614.806 1084 619.5C1084 624.194 1087.81 628 1092.5 628Z" fill="#BFD9FE"/>
<path d="M1092.5 618.4C1093.44 618.4 1094.2 617.639 1094.2 616.7C1094.2 615.761 1093.44 615 1092.5 615C1091.56 615 1090.8 615.761 1090.8 616.7C1090.8 617.639 1091.56 618.4 1092.5 618.4Z" stroke="#F9F9F7" stroke-miterlimit="10"/>
<path d="M1096.9 624V622.1C1096.9 620.7 1095.4 619.6 1093.5 619.6H1091.6C1089.7 619.6 1088.2 620.7 1088.2 622.1V624" stroke="#F9F9F7" stroke-miterlimit="10"/>
<path d="M1124 643C1130.63 643 1136 637.627 1136 631C1136 624.373 1130.63 619 1124 619C1117.37 619 1112 624.373 1112 631C1112 637.627 1117.37 643 1124 643Z" fill="#BFD9FE"/>
<path d="M1124 629.4C1125.33 629.4 1126.4 628.326 1126.4 627C1126.4 625.675 1125.33 624.6 1124 624.6C1122.67 624.6 1121.6 625.675 1121.6 627C1121.6 628.326 1122.67 629.4 1124 629.4Z" stroke="#F9F9F7" stroke-miterlimit="10"/>
<path d="M1130.17 637.4V634.657C1130.17 632.714 1128 631.229 1125.37 631.229H1122.63C1120 631.229 1117.83 632.829 1117.83 634.657V637.4" stroke="#F9F9F7" stroke-miterlimit="10"/>
<path opacity="0.5" d="M1115 609C1123.28 609 1130 602.284 1130 594C1130 585.716 1123.28 579 1115 579C1106.72 579 1100 585.716 1100 594C1100 602.284 1106.72 609 1115 609Z" fill="#B699CC" fill-opacity="0.72"/>
<path d="M1115 592C1116.66 592 1118 590.657 1118 589C1118 587.343 1116.66 586 1115 586C1113.34 586 1112 587.343 1112 589C1112 590.657 1113.34 592 1115 592Z" stroke="#F9F9F7" stroke-miterlimit="10"/>
<path d="M1122.71 602V598.571C1122.71 596.143 1120 594.286 1116.71 594.286H1113.29C1110 594.286 1107.29 596.286 1107.29 598.571V602" stroke="#F9F9F7" stroke-miterlimit="10"/>
<path d="M996.004 736.129C996.317 736.333 996.528 736.539 996.841 736.742" stroke="#536AF4" stroke-width="2" stroke-linecap="round" stroke-linejoin="round"/>
<path d="M1000.64 739.094C1000.99 739.208 1001.25 739.35 1001.6 739.463" stroke="#536AF4" stroke-width="2" stroke-linecap="round" stroke-linejoin="round"/>
<path d="M1005.17 740.77C1018.86 745.21 1034.85 740.779 1048.42 734.403C1086.48 716.486 1115.11 686.162 1146.01 655.895C1197.41 605.557 1248.38 554.494 1295.98 499.929C1344.88 443.866 1391.32 383.128 1452.33 343.619C1476.83 327.666 1509.47 316.585 1538.03 317.563C1546.3 318.966 1551.48 319.908 1557.32 328.189C1561.09 335.988 1539.57 368.691 1502.94 390.989" stroke="#536AF4" stroke-width="2" stroke-linecap="round" stroke-linejoin="round" stroke-dasharray="2 5"/>
<circle cx="1355.5" cy="479.209" r="12.3628" transform="rotate(-2.46107 1355.5 479.209)" fill="#F9F9F7"/>
<path d="M1366.03 478.756C1366.28 484.571 1361.77 489.488 1355.95 489.738C1350.14 489.988 1345.22 485.477 1344.97 479.661C1344.72 473.846 1349.23 468.93 1355.05 468.68C1360.86 468.43 1365.78 472.941 1366.03 478.756Z" stroke="#FA6462" stroke-width="1.4" stroke-linecap="round" stroke-linejoin="round"/>
<path d="M1360.95 480.325C1361.06 482.805 1358.73 484.92 1355.75 485.048C1352.78 485.176 1350.28 483.269 1350.17 480.788" stroke="#FA6462" stroke-width="1.4" stroke-linecap="round" stroke-linejoin="round"/>
<path fill-rule="evenodd" clip-rule="evenodd" d="M1353.35 477.805L1352.84 478.356L1351.44 477.071L1350.16 478.472L1349.61 477.966L1350.89 476.565L1349.49 475.28L1350 474.729L1351.4 476.014L1352.68 474.613L1353.23 475.119L1351.95 476.52L1353.35 477.805Z" fill="#FA6462"/>
<path fill-rule="evenodd" clip-rule="evenodd" d="M1361.77 477.443L1361.26 477.994L1359.86 476.709L1358.58 478.11L1358.03 477.604L1359.31 476.203L1357.91 474.918L1358.42 474.367L1359.82 475.652L1361.1 474.252L1361.65 474.757L1360.37 476.158L1361.77 477.443Z" fill="#FA6462"/>
<path d="M1355.89 477.286L1354.48 481.25L1356.14 481.284" stroke="#FA6462" stroke-width="1.2" stroke-linecap="round" stroke-linejoin="round"/>
<g opacity="0.4">
<path d="M1419.65 626.809V628.021C1419.63 628.043 1419.59 628.043 1419.52 628.064C1419.48 628.064 1419.42 628.085 1419.35 628.085C1419.23 628.085 1419.14 628.064 1419.1 628.021C1419.06 627.979 1419.01 627.894 1419.01 627.787V624.745C1419.01 624.681 1419.04 624.617 1419.08 624.596C1419.12 624.553 1419.16 624.532 1419.23 624.511C1419.35 624.468 1419.5 624.447 1419.65 624.426C1419.82 624.404 1419.97 624.404 1420.12 624.404C1420.63 624.404 1421.01 624.511 1421.24 624.723C1421.49 624.936 1421.6 625.234 1421.6 625.596C1421.6 625.957 1421.47 626.255 1421.24 626.489C1420.99 626.702 1420.63 626.83 1420.14 626.83H1419.65V626.809ZM1420.14 626.298C1420.41 626.298 1420.63 626.234 1420.77 626.128C1420.92 626 1421.01 625.83 1421.01 625.596C1421.01 625.362 1420.94 625.192 1420.8 625.085C1420.65 624.979 1420.43 624.915 1420.16 624.915C1420.07 624.915 1419.99 624.915 1419.88 624.936C1419.8 624.936 1419.71 624.957 1419.65 624.957V626.298H1420.14V626.298Z" fill="#536AF4"/>
<path d="M1423 628.021C1422.98 628.043 1422.94 628.043 1422.87 628.064C1422.83 628.064 1422.77 628.085 1422.7 628.085C1422.58 628.085 1422.49 628.064 1422.45 628.021C1422.41 627.979 1422.36 627.894 1422.36 627.787V624.745C1422.36 624.681 1422.39 624.617 1422.43 624.596C1422.47 624.553 1422.51 624.532 1422.58 624.511C1422.7 624.468 1422.85 624.447 1423 624.426C1423.17 624.404 1423.34 624.404 1423.51 624.404C1424.02 624.404 1424.4 624.511 1424.65 624.723C1424.91 624.936 1425.04 625.213 1425.04 625.596C1425.04 625.851 1424.97 626.085 1424.82 626.255C1424.7 626.447 1424.51 626.575 1424.25 626.66C1424.34 626.787 1424.44 626.894 1424.53 627C1424.61 627.106 1424.7 627.234 1424.78 627.319C1424.87 627.426 1424.93 627.511 1424.99 627.596C1425.06 627.681 1425.1 627.745 1425.14 627.809C1425.12 627.894 1425.08 627.957 1425.01 628.021C1424.95 628.064 1424.87 628.085 1424.8 628.085C1424.72 628.085 1424.63 628.064 1424.57 628.021C1424.51 627.979 1424.46 627.915 1424.4 627.83L1423.64 626.745H1422.98V628.021H1423ZM1423.57 626.234C1423.83 626.234 1424.02 626.17 1424.17 626.064C1424.31 625.957 1424.4 625.787 1424.4 625.553C1424.4 625.34 1424.31 625.17 1424.17 625.064C1424.02 624.957 1423.81 624.894 1423.51 624.894C1423.42 624.894 1423.34 624.894 1423.23 624.915C1423.15 624.915 1423.06 624.936 1423 624.936V626.213H1423.57V626.234Z" fill="#536AF4"/>
<path d="M1429.11 626.234C1429.11 626.532 1429.06 626.808 1428.98 627.042C1428.89 627.277 1428.77 627.468 1428.62 627.638C1428.47 627.787 1428.28 627.915 1428.07 628C1427.86 628.085 1427.62 628.128 1427.37 628.128C1427.11 628.128 1426.88 628.085 1426.67 628C1426.46 627.915 1426.27 627.808 1426.12 627.638C1425.97 627.489 1425.84 627.277 1425.76 627.042C1425.67 626.808 1425.63 626.532 1425.63 626.234C1425.63 625.936 1425.67 625.659 1425.76 625.425C1425.84 625.191 1425.97 625 1426.12 624.83C1426.27 624.681 1426.46 624.553 1426.67 624.468C1426.88 624.383 1427.11 624.34 1427.35 624.34C1427.6 624.34 1427.81 624.383 1428.02 624.468C1428.24 624.553 1428.43 624.659 1428.58 624.83C1428.72 624.979 1428.85 625.191 1428.94 625.425C1429.06 625.659 1429.11 625.936 1429.11 626.234ZM1428.47 626.234C1428.47 625.787 1428.36 625.468 1428.17 625.234C1427.98 625 1427.71 624.894 1427.37 624.894C1427.05 624.894 1426.77 625 1426.58 625.234C1426.39 625.468 1426.29 625.808 1426.29 626.234C1426.29 626.681 1426.39 627 1426.58 627.234C1426.77 627.468 1427.05 627.574 1427.39 627.574C1427.73 627.574 1427.98 627.468 1428.19 627.234C1428.36 627.021 1428.47 626.681 1428.47 626.234Z" fill="#536AF4"/>
<path d="M1429.74 626.766C1429.72 626.744 1429.7 626.702 1429.7 626.659C1429.68 626.617 1429.68 626.574 1429.68 626.532C1429.68 626.447 1429.7 626.383 1429.74 626.34C1429.78 626.298 1429.85 626.276 1429.93 626.276H1431.29C1431.31 626.298 1431.31 626.34 1431.33 626.383C1431.35 626.425 1431.35 626.468 1431.35 626.51C1431.35 626.596 1431.33 626.659 1431.29 626.702C1431.25 626.744 1431.18 626.766 1431.1 626.766H1429.74Z" fill="#536AF4"/>
<path d="M1433.11 627.596C1433.37 627.596 1433.54 627.553 1433.66 627.447C1433.79 627.34 1433.83 627.213 1433.83 627.042C1433.83 626.893 1433.79 626.787 1433.71 626.702C1433.62 626.617 1433.47 626.553 1433.28 626.489L1432.84 626.362C1432.71 626.319 1432.58 626.276 1432.46 626.213C1432.35 626.149 1432.24 626.085 1432.18 626.021C1432.1 625.936 1432.05 625.851 1432.01 625.745C1431.97 625.638 1431.95 625.51 1431.95 625.383C1431.95 625.064 1432.05 624.83 1432.29 624.659C1432.52 624.489 1432.82 624.383 1433.22 624.383C1433.39 624.383 1433.54 624.404 1433.66 624.425C1433.79 624.447 1433.92 624.489 1434.02 624.532C1434.13 624.574 1434.19 624.638 1434.26 624.681C1434.32 624.745 1434.34 624.808 1434.34 624.872C1434.34 624.936 1434.32 625 1434.3 625.042C1434.26 625.085 1434.24 625.127 1434.17 625.17C1434.07 625.085 1433.94 625.042 1433.79 624.979C1433.64 624.936 1433.45 624.893 1433.26 624.893C1433.05 624.893 1432.88 624.936 1432.75 625.021C1432.63 625.106 1432.58 625.213 1432.58 625.362C1432.58 625.489 1432.63 625.574 1432.71 625.638C1432.8 625.702 1432.92 625.766 1433.11 625.83L1433.45 625.936C1433.77 626.042 1434.05 626.17 1434.22 626.34C1434.41 626.51 1434.49 626.745 1434.49 627.042C1434.49 627.191 1434.47 627.34 1434.41 627.468C1434.34 627.596 1434.26 627.702 1434.15 627.808C1434.05 627.893 1433.9 627.979 1433.73 628.021C1433.56 628.064 1433.37 628.106 1433.16 628.106C1432.99 628.106 1432.82 628.085 1432.67 628.064C1432.52 628.042 1432.39 628 1432.29 627.936C1432.18 627.893 1432.1 627.83 1432.03 627.766C1431.97 627.702 1431.95 627.638 1431.95 627.553C1431.95 627.468 1431.97 627.404 1432.01 627.362C1432.05 627.298 1432.12 627.255 1432.18 627.234C1432.27 627.319 1432.39 627.404 1432.56 627.489C1432.69 627.553 1432.88 627.596 1433.11 627.596Z" fill="#536AF4"/>
<path d="M1435.32 627.936C1435.25 627.872 1435.23 627.787 1435.23 627.681V624.787C1435.23 624.681 1435.25 624.595 1435.32 624.553C1435.38 624.489 1435.47 624.468 1435.57 624.468H1437.52C1437.54 624.489 1437.57 624.532 1437.57 624.574C1437.59 624.617 1437.59 624.659 1437.59 624.723C1437.59 624.808 1437.57 624.872 1437.52 624.915C1437.48 624.957 1437.42 624.978 1437.35 624.978H1435.85V625.957H1437.33C1437.35 625.978 1437.37 626.021 1437.37 626.064C1437.4 626.106 1437.4 626.149 1437.4 626.212C1437.4 626.298 1437.37 626.361 1437.33 626.404C1437.29 626.446 1437.23 626.468 1437.16 626.468H1435.83V627.532H1437.52C1437.54 627.553 1437.54 627.595 1437.57 627.638C1437.59 627.681 1437.59 627.723 1437.59 627.787C1437.59 627.872 1437.57 627.936 1437.52 628C1437.48 628.042 1437.42 628.064 1437.35 628.064H1435.55C1435.45 628.042 1435.36 628 1435.32 627.936Z" fill="#536AF4"/>
<path d="M1441.13 628.043C1441.06 628.064 1440.98 628.085 1440.89 628.085C1440.79 628.085 1440.68 628.064 1440.62 628.021C1440.53 627.979 1440.47 627.894 1440.41 627.787L1439.43 626.106C1439.39 626.021 1439.35 625.957 1439.3 625.872C1439.26 625.787 1439.22 625.702 1439.18 625.617C1439.13 625.532 1439.09 625.447 1439.05 625.383C1439.01 625.319 1438.99 625.234 1438.94 625.17H1438.92C1438.94 625.383 1438.96 625.596 1438.96 625.83C1438.96 626.064 1438.99 626.277 1438.99 626.489V628.021C1438.96 628.021 1438.92 628.043 1438.86 628.043C1438.82 628.043 1438.75 628.064 1438.69 628.064C1438.56 628.064 1438.48 628.043 1438.43 628C1438.39 627.957 1438.35 627.894 1438.35 627.787V624.553C1438.39 624.511 1438.43 624.468 1438.52 624.447C1438.58 624.426 1438.67 624.404 1438.75 624.404C1438.86 624.404 1438.96 624.426 1439.05 624.468C1439.13 624.511 1439.2 624.575 1439.28 624.702L1440.26 626.404C1440.3 626.489 1440.34 626.553 1440.39 626.638C1440.43 626.723 1440.47 626.809 1440.51 626.894C1440.55 626.979 1440.6 627.064 1440.64 627.128C1440.68 627.213 1440.7 627.277 1440.75 627.34H1440.77C1440.75 627.043 1440.72 626.745 1440.72 626.447C1440.72 626.149 1440.72 625.872 1440.72 625.596V624.468C1440.75 624.468 1440.79 624.447 1440.85 624.447C1440.89 624.447 1440.96 624.426 1441.02 624.426C1441.15 624.426 1441.23 624.447 1441.28 624.489C1441.32 624.532 1441.36 624.596 1441.36 624.702V627.957C1441.25 627.979 1441.19 628.021 1441.13 628.043Z" fill="#536AF4"/>
<path d="M1443.65 624.978V628.021C1443.63 628.042 1443.59 628.042 1443.52 628.064C1443.48 628.064 1443.42 628.085 1443.35 628.085C1443.23 628.085 1443.14 628.064 1443.1 628.021C1443.06 627.978 1443.01 627.893 1443.01 627.787V624.978H1441.98C1441.95 624.957 1441.93 624.915 1441.93 624.872C1441.91 624.829 1441.91 624.787 1441.91 624.723C1441.91 624.638 1441.93 624.574 1441.98 624.532C1442.02 624.489 1442.08 624.468 1442.14 624.468H1444.69C1444.71 624.489 1444.71 624.532 1444.73 624.574C1444.75 624.617 1444.75 624.659 1444.75 624.723C1444.75 624.915 1444.67 625 1444.52 625H1443.65V624.978Z" fill="#536AF4"/>
<path d="M1447.13 627.149H1445.71L1445.41 628.043C1445.37 628.064 1445.35 628.064 1445.3 628.085C1445.26 628.085 1445.22 628.106 1445.16 628.106C1445.05 628.106 1444.99 628.085 1444.92 628.043C1444.86 628 1444.84 627.936 1444.84 627.851C1444.84 627.808 1444.84 627.766 1444.86 627.723C1444.88 627.681 1444.88 627.638 1444.9 627.596C1444.94 627.426 1445.03 627.213 1445.11 626.957C1445.2 626.702 1445.3 626.426 1445.41 626.128C1445.52 625.83 1445.62 625.553 1445.73 625.277C1445.83 625 1445.92 624.766 1446 624.553C1446.05 624.532 1446.11 624.511 1446.19 624.489C1446.28 624.468 1446.36 624.447 1446.45 624.447C1446.55 624.447 1446.66 624.468 1446.75 624.489C1446.83 624.511 1446.89 624.574 1446.94 624.66C1447.02 624.894 1447.11 625.128 1447.21 625.426C1447.32 625.702 1447.42 626 1447.51 626.298C1447.61 626.596 1447.7 626.894 1447.81 627.191C1447.89 627.489 1447.98 627.745 1448.06 627.979C1448.02 628.021 1447.98 628.043 1447.93 628.085C1447.87 628.106 1447.81 628.128 1447.72 628.128C1447.61 628.128 1447.53 628.106 1447.49 628.064C1447.45 628.021 1447.4 627.957 1447.36 627.851L1447.13 627.149ZM1446.41 624.957C1446.36 625.064 1446.32 625.191 1446.28 625.319C1446.24 625.447 1446.17 625.596 1446.13 625.745C1446.09 625.894 1446.02 626.043 1445.98 626.191C1445.94 626.34 1445.88 626.489 1445.83 626.638H1446.98C1446.94 626.489 1446.87 626.319 1446.83 626.17C1446.79 626.021 1446.72 625.851 1446.68 625.723C1446.64 625.574 1446.6 625.447 1446.55 625.319C1446.51 625.191 1446.47 625.085 1446.45 625H1446.41V624.957Z" fill="#536AF4"/>
<path d="M1449.8 624.978V628.021C1449.78 628.042 1449.73 628.042 1449.67 628.064C1449.63 628.064 1449.57 628.085 1449.5 628.085C1449.37 628.085 1449.29 628.064 1449.25 628.021C1449.2 627.978 1449.16 627.893 1449.16 627.787V624.978H1448.12C1448.1 624.957 1448.08 624.915 1448.08 624.872C1448.06 624.829 1448.06 624.787 1448.06 624.723C1448.06 624.638 1448.08 624.574 1448.12 624.532C1448.17 624.489 1448.23 624.468 1448.29 624.468H1450.84C1450.86 624.489 1450.86 624.532 1450.88 624.574C1450.9 624.617 1450.9 624.659 1450.9 624.723C1450.9 624.915 1450.82 625 1450.67 625H1449.8V624.978Z" fill="#536AF4"/>
<path d="M1452.07 628.064C1452.02 628.064 1451.96 628.085 1451.9 628.085C1451.77 628.085 1451.69 628.064 1451.64 628.021C1451.6 627.978 1451.56 627.893 1451.56 627.787V624.468C1451.58 624.468 1451.62 624.447 1451.69 624.447C1451.73 624.447 1451.79 624.425 1451.86 624.425C1451.96 624.425 1452.05 624.447 1452.11 624.489C1452.17 624.532 1452.19 624.617 1452.19 624.723V628.021C1452.15 628.042 1452.11 628.042 1452.07 628.064Z" fill="#536AF4"/>
<path d="M1456.43 626.234C1456.43 626.532 1456.39 626.808 1456.31 627.042C1456.22 627.277 1456.1 627.468 1455.95 627.638C1455.8 627.787 1455.61 627.915 1455.4 628C1455.18 628.085 1454.95 628.128 1454.7 628.128C1454.44 628.128 1454.21 628.085 1454 628C1453.78 627.915 1453.59 627.808 1453.45 627.638C1453.3 627.489 1453.17 627.277 1453.08 627.042C1453 626.808 1452.96 626.532 1452.96 626.234C1452.96 625.936 1453 625.659 1453.08 625.425C1453.17 625.191 1453.3 625 1453.45 624.83C1453.59 624.681 1453.78 624.553 1454 624.468C1454.21 624.383 1454.44 624.34 1454.67 624.34C1454.93 624.34 1455.14 624.383 1455.35 624.468C1455.57 624.553 1455.76 624.659 1455.9 624.83C1456.05 624.979 1456.18 625.191 1456.27 625.425C1456.39 625.659 1456.43 625.936 1456.43 626.234ZM1455.8 626.234C1455.8 625.787 1455.69 625.468 1455.5 625.234C1455.31 625 1455.04 624.894 1454.7 624.894C1454.38 624.894 1454.1 625 1453.91 625.234C1453.72 625.468 1453.61 625.808 1453.61 626.234C1453.61 626.681 1453.72 627 1453.91 627.234C1454.1 627.468 1454.38 627.574 1454.72 627.574C1455.06 627.574 1455.31 627.468 1455.52 627.234C1455.69 627.021 1455.8 626.681 1455.8 626.234Z" fill="#536AF4"/>
<path d="M1460 628.043C1459.93 628.064 1459.85 628.085 1459.76 628.085C1459.66 628.085 1459.55 628.064 1459.49 628.021C1459.4 627.979 1459.34 627.894 1459.28 627.787L1458.3 626.106C1458.26 626.021 1458.22 625.957 1458.17 625.872C1458.13 625.787 1458.09 625.702 1458.05 625.617C1458 625.532 1457.96 625.447 1457.92 625.383C1457.88 625.319 1457.86 625.234 1457.81 625.17H1457.79C1457.81 625.383 1457.83 625.596 1457.83 625.83C1457.83 626.064 1457.86 626.277 1457.86 626.489V628.021C1457.83 628.021 1457.79 628.043 1457.73 628.043C1457.69 628.043 1457.62 628.064 1457.56 628.064C1457.43 628.064 1457.35 628.043 1457.3 628C1457.26 627.957 1457.22 627.894 1457.22 627.787V624.553C1457.26 624.511 1457.3 624.468 1457.39 624.447C1457.45 624.426 1457.54 624.404 1457.62 624.404C1457.73 624.404 1457.83 624.426 1457.92 624.468C1458 624.511 1458.07 624.575 1458.15 624.702L1459.13 626.404C1459.17 626.489 1459.21 626.553 1459.25 626.638C1459.3 626.723 1459.34 626.809 1459.38 626.894C1459.42 626.979 1459.47 627.064 1459.51 627.128C1459.55 627.213 1459.57 627.277 1459.61 627.34H1459.64C1459.61 627.043 1459.59 626.745 1459.59 626.447C1459.59 626.149 1459.59 625.872 1459.59 625.596V624.468C1459.61 624.468 1459.66 624.447 1459.72 624.447C1459.76 624.447 1459.83 624.426 1459.89 624.426C1460.02 624.426 1460.1 624.447 1460.14 624.489C1460.19 624.532 1460.23 624.596 1460.23 624.702V627.957C1460.1 627.979 1460.06 628.021 1460 628.043Z" fill="#536AF4"/>
<path d="M1428.15 610H1411.25C1411.11 610 1411 610.106 1411 610.255V623.191C1411 623.298 1411.06 623.383 1411.15 623.426C1411.19 623.447 1411.23 623.447 1411.25 623.447C1411.32 623.447 1411.36 623.426 1411.4 623.383L1414.65 620.915H1428.15C1428.3 620.915 1428.41 620.809 1428.41 620.66V610.255C1428.41 610.106 1428.3 610 1428.15 610Z" fill="#536AF4"/>
<path d="M1462.46 634C1462.39 634 1462.33 633.979 1462.29 633.936L1459.61 631.702H1414.43C1414.29 631.702 1414.16 631.574 1414.16 631.447V620.809C1414.16 620.66 1414.29 620.553 1414.43 620.553H1464.75C1464.89 620.553 1465 620.681 1465 620.809V631.426C1465 631.574 1464.87 631.681 1464.75 631.681H1462.77L1462.73 633.723C1462.73 633.83 1462.67 633.915 1462.58 633.957C1462.52 633.979 1462.5 634 1462.46 634ZM1414.71 631.17H1459.72C1459.78 631.17 1459.85 631.192 1459.89 631.234L1462.2 633.17L1462.24 631.426C1462.24 631.277 1462.37 631.17 1462.5 631.17H1464.47V621.085H1414.71V631.17Z" fill="#536AF4"/>
<path d="M1421.37 615.511L1419.93 616.362L1418.46 617.213V615.511V613.83L1419.93 614.681L1421.37 615.511Z" fill="white"/>
<path d="M1418.46 617.468C1418.42 617.468 1418.38 617.447 1418.34 617.426C1418.25 617.383 1418.21 617.298 1418.21 617.192V613.83C1418.21 613.745 1418.25 613.638 1418.34 613.596C1418.42 613.553 1418.53 613.553 1418.59 613.596L1421.49 615.277C1421.58 615.319 1421.62 615.404 1421.62 615.511C1421.62 615.617 1421.58 615.702 1421.49 615.745L1418.59 617.426C1418.55 617.447 1418.51 617.468 1418.46 617.468ZM1418.74 614.298V616.745L1420.86 615.532L1418.74 614.298Z" fill="white"/>
</g>
<g clip-path="url(#clip0)">
<path d="M1186.8 665.6C1185.5 666.4 1184.2 667.1 1182.2 670.3C1180.3 673.5 1179.4 677.2 1178.7 680.8C1175.9 694.2 1176.4 707.8 1175.9 721.5C1186 720.4 1195.4 719.3 1206.9 718.3C1206.4 715 1205.4 713.9 1205.6 710.6C1209.9 710 1211.6 706.5 1212.5 702.3C1212.7 701.1 1212.8 699.8 1213.3 698.7C1213.8 697.6 1214.9 694.5 1216.1 694.7C1213.5 692.8 1213.5 688.4 1213.4 685.2C1213.3 682 1213 678.6 1212.8 675.4C1212.7 672.6 1211.7 672.9 1210.6 670.6C1210.5 670.5 1200.6 656.4 1186.8 665.6Z" fill="#EDAC8F"/>
<path d="M1209.5 671.7C1209.5 670.7 1210.6 671.2 1210.7 671.2C1211.6 671.7 1212.7 674.8 1212.7 676.9C1212.7 679.2 1218.5 674.7 1218.3 670.8C1217.9 664.4 1214.4 661.6 1213.4 660.7C1210.8 658.4 1206.9 658.6 1203.4 658.6C1196.7 658.6 1190.1 657.5 1183.5 658.3C1176.9 659.1 1170.1 662.5 1167.6 668.7C1165.7 673.5 1164.8 675.9 1164.2 681.1C1162.2 695 1175.6 712.7 1175.6 712.7C1175.6 712.7 1192.8 717.7 1194.9 708.3V697.9C1194.9 697.9 1187.6 694.8 1188.6 688.5C1188.6 688.5 1190.7 682.2 1199.1 687.5C1199.1 687.4 1209.5 678.1 1209.5 671.7Z" fill="#3582EB"/>
<path d="M1174.4 857.2C1161.2 852.4 1124 831.7 1112.7 823.4C1109 820.7 1103.4 816.7 1102.5 816C1101.3 814.9 1097.4 809.5 1097.2 807.9C1096 798.9 1101.7 791.7 1105.5 783.4C1108.4 777 1111.6 770.7 1114.7 764.4L1146.9 776.4C1143.9 781.7 1128.9 801.4 1129 802C1129.2 802.7 1129.8 803.3 1130.3 803.8C1140.9 813.3 1150.4 820 1162.8 827.1C1165.7 828.7 1170.7 833 1173 835.3" fill="#EDAC8F"/>
<path d="M1154.6 722.9C1144.7 720.4 1135.2 729.3 1128.8 737.2C1122.4 745.1 1118.5 754.7 1114.6 764.1C1123.7 767.7 1137.9 774.1 1146.6 778.7C1154.4 772.4 1156.4 763 1163.1 755.5C1163.1 755.5 1174.5 727.9 1154.6 722.9Z" fill="black"/>
<path d="M1216.2 716C1226.2 712.3 1258.9 715.4 1266.4 722.9C1273.9 730.4 1279.2 739.9 1284.3 749.2C1275.2 754 1265.4 760.3 1256.9 766C1243.2 765.9 1232 762 1224.2 754.9C1224.2 755 1196.1 723.5 1216.2 716Z" fill="black"/>
<path d="M1265.1 851.4C1265.7 843.3 1252.5 783.5 1251.4 767.6C1250.3 751.7 1249.6 739.9 1240.6 727.4C1237.4 723 1233.6 718.9 1228.8 716.8C1221.3 713.5 1212.9 716.1 1204.9 717.2C1191.2 719.1 1181 717.5 1169.5 719.4C1164.9 720.1 1150.2 720.9 1146.4 723.9C1141.7 727.7 1140.7 738.8 1140.2 745.2C1138.9 761.7 1155.6 834.5 1161 850.5L1265.1 851.4Z" fill="black"/>
<path d="M1255.8 765.5C1261.4 773.8 1266.9 782 1272.5 790.3C1274.5 793.3 1276.6 796.3 1279.3 798.7C1282.8 801.7 1287.2 803.4 1291.7 804C1294.2 804.3 1296.8 804.3 1299.2 803.6C1301.5 802.9 1303.6 801.6 1305.5 800.1C1318.2 790.9 1327.7 778 1337.3 765.5C1338 764.6 1338.8 763.6 1339.8 763C1340.8 762.4 1342 762.1 1343.2 761.9C1347.7 761 1352.5 759.6 1356.4 757.2C1363.3 753 1366.3 748 1366.1 746.4C1366 745.5 1365.3 744.8 1365.3 744C1365.3 743.1 1368.3 736.6 1365.5 735.2C1368.3 733 1368.3 727 1367.3 726C1366.9 725.6 1368.3 725 1367.6 723.6C1366.3 720.9 1361.6 722.8 1358.9 724C1356.2 725.2 1353.8 727.1 1351.5 729C1352.1 727.7 1352.6 726.3 1352.5 724.9C1352.4 723.5 1351.2 722.1 1349.8 722.1C1348.8 722.1 1348 722.8 1347.3 723.5C1343.5 726.9 1339.6 730.3 1335.8 733.8C1334.2 735.2 1332.5 736.7 1331.6 738.7C1330.9 740.2 1330.7 742 1329.6 743.4C1329 744.2 1328.2 744.8 1327.4 745.3C1319.5 750.9 1311.6 756.5 1303.7 762.2C1301.6 763.7 1298.8 765.3 1296.6 764C1295.8 763.6 1295.2 762.9 1294.7 762.2C1289.2 755.4 1284.2 748.2 1279.7 740.7" fill="#EDAC8F"/>
<path d="M1264.4 851.1L1161.4 849.9L1166.5 946.9L1287.6 947.2C1284.3 935.3 1275 896.1 1264.4 851.1Z" fill="#3582EB"/>
<path d="M1197.7 694.4H1191.9C1191.6 694.4 1191.3 694.1 1191.3 693.8V688.5C1191.3 688.2 1191.6 687.9 1191.9 687.9H1197.7C1198 687.9 1198.3 688.2 1198.3 688.5V693.8C1198.2 694.2 1198 694.4 1197.7 694.4Z" fill="black"/>
<path d="M1195.4 693C1195.5 697 1201.4 705.5 1214.3 702.8" stroke="black" stroke-miterlimit="10"/>
<path d="M1215.7 705C1217.08 705 1218.2 703.881 1218.2 702.5C1218.2 701.119 1217.08 700 1215.7 700C1214.32 700 1213.2 701.119 1213.2 702.5C1213.2 703.881 1214.32 705 1215.7 705Z" fill="black"/>
<path d="M1365.9 727.7C1362.4 730.9 1358.5 733.7 1354.3 736.1" stroke="#E4908A" stroke-miterlimit="10" stroke-linecap="round" stroke-linejoin="round"/>
<path d="M1364.4 736.6C1361.9 739.3 1358.9 741.5 1355.6 743.2" stroke="#E4908A" stroke-miterlimit="10" stroke-linecap="round" stroke-linejoin="round"/>
<path d="M1364.6 744C1362.7 746 1360.4 747.6 1357.9 748.9" stroke="#E4908A" stroke-miterlimit="10" stroke-linecap="round" stroke-linejoin="round"/>
<path d="M1197.3 895C1202.4 895 1207.6 895 1212.7 895C1214.7 900.4 1228.8 933.4 1234.7 945.9" stroke="#004AC8" stroke-miterlimit="10"/>
<path d="M1215.8 860.4C1223.1 861 1230.5 860.7 1237.7 859.4C1238.2 859.3 1238.7 859.3 1239 859.6C1239.1 859.7 1239.2 859.9 1239.2 860.1C1245.7 882.5 1238.6 886.8 1234.7 887.5C1233.1 887.8 1221.7 888.5 1219.2 873.9L1215.8 860.4Z" stroke="#004AC8" stroke-miterlimit="10"/>
<path d="M1169.5 859.5C1176 860.5 1182.7 860.6 1189.2 859.8C1189.6 859.8 1190.1 859.7 1190.3 860.1C1190.4 860.2 1190.4 860.4 1190.5 860.6C1195.1 881 1188.5 884.5 1185 884.9C1183.5 885 1173.3 885.1 1171.9 871.8L1169.5 859.5Z" stroke="#004AC8" stroke-miterlimit="10"/>
<path d="M1201.7 859.3C1201 866.7 1202 874.3 1204.5 881.4" stroke="#004AC8" stroke-miterlimit="10"/>
</g>
<rect x="1155" y="929" width="140" height="19" rx="9.5" fill="url(#paint3_linear)"/>
<g clip-path="url(#clip1)">
<path d="M1474 677.3C1475.2 678.1 1476.5 678.7 1478.4 681.7C1480.3 684.7 1481.1 688.3 1481.8 691.8C1484.4 704.6 1484 717.6 1484.5 730.7C1474.8 729.6 1467.8 728.6 1456.8 727.6C1457.3 724.4 1458.2 723.4 1458 720.2C1453.9 719.6 1450.3 716.3 1449.5 712.3C1449.3 711.1 1449.2 709.9 1448.8 708.8C1448.4 707.7 1447.3 706.7 1446.1 706.8C1448.6 705 1449.5 701.7 1449.6 698.6C1449.7 695.5 1449.1 689.5 1449.2 686.4C1449.3 683.8 1450.2 684 1451.3 681.9C1451.3 682 1460.8 668.4 1474 677.3Z" fill="#EDAC8F"/>
<path d="M1452.2 683.1C1452.2 682.1 1451.1 682.6 1451.1 682.6C1450.2 683.1 1449.2 686.1 1449.2 688.1C1449.2 690.3 1443.6 686 1443.9 682.2C1444.2 676.1 1447.7 673.4 1448.6 672.5C1451.1 670.3 1454.9 670.5 1458.2 670.5C1464.6 670.5 1470.9 669.4 1477.2 670.2C1483.5 671 1490 674.3 1492.4 680.2C1494.3 684.8 1493.2 690.1 1491.9 694.9C1491.4 696.9 1490.8 698.9 1490.8 700.9C1490.9 705.8 1494.5 709.9 1498.6 712.7C1499.8 713.5 1501.1 714.3 1502 715.4C1502 715.4 1512.3 726.1 1500.3 726.1H1473.3C1473.3 726.1 1468.3 727.1 1466.3 718.1V708.1C1466.3 708.1 1473.3 705.1 1472.3 699.1C1472.3 699.1 1470.3 693.1 1462.3 698.1C1462.2 698.1 1452.2 689.2 1452.2 683.1Z" fill="#3582EB"/>
<path d="M1419.1 835.1C1418.5 828 1415.3 822.9 1413.4 816C1409.6 802.6 1407.4 788.6 1408.4 774.6C1409.4 760.6 1413.9 746.8 1422.6 735.8C1425.7 731.9 1429.3 728.4 1433.9 726.5C1441 723.7 1449 726 1456.7 727C1469.8 728.6 1479.6 727.2 1490.6 728.9C1495 729.6 1499.5 730.2 1503.1 732.9C1507.6 736.2 1508.5 746 1509 751.5C1510.2 766 1491.4 821 1486.2 835.1H1419.1Z" fill="#F0C6E5"/>
<path d="M1407.3 761.3C1408.7 761 1409.8 760 1410.8 758.9C1414.7 754.8 1418.1 750.3 1421.1 745.5C1421.7 744.6 1422.2 743.7 1422.5 742.7C1422.7 742.1 1422.8 741.5 1422.4 741C1422.2 740.8 1422 740.7 1421.8 740.6C1421 740.3 1420 740.5 1419.2 741C1418.4 741.5 1417.8 742.2 1417.2 742.9C1415.3 745.2 1413.8 747.9 1412.7 750.7L1407.3 761.3Z" fill="#E79281"/>
<path d="M1410.5 768C1419.7 768.9 1428.6 771.5 1436.8 775.8C1434.3 783 1431.7 790.3 1429.2 797.5C1426.4 805.6 1423.5 813.7 1418.8 820.8C1416.4 824.4 1413.4 827.8 1409.6 829.9C1405.8 832 1401 832.7 1397 831C1392.5 829 1389.7 824.3 1388.5 819.6C1387.3 814.8 1387.4 809.9 1387.1 805C1386.8 801 1388.9 777.2 1394.9 757.6C1395 757.2 1394.9 756.7 1394.9 756.2C1394.9 749.2 1396 744.5 1397.3 740.4C1395.7 739.1 1393.9 737.6 1393.5 735.6C1393.1 733.6 1393.9 732 1395.9 732.6C1395.2 731.8 1394.9 730.6 1395.3 729.6C1395.7 728.6 1396.9 727.9 1397.9 728.1C1398.7 728.2 1400.4 728.8 1401.2 729C1402.2 729.2 1402.2 728.8 1403.2 728.5C1406.7 727.6 1411.6 729.4 1413.3 732.5C1412.1 731.2 1411.6 729.7 1411.1 728.3C1410.6 726.9 1410.8 724.9 1412.1 724.4C1413.8 723.8 1415.2 725.8 1415.9 727.4C1416.9 729.7 1417.8 732 1418.8 734.3C1419.3 735.6 1419.9 736.9 1419.9 738.3C1419.9 739.7 1419.4 741.1 1418.9 742.4C1416.7 748.2 1414.5 754.2 1411 759.3C1409.8 761.1 1408.4 762.9 1407.5 764.9C1406.6 766.9 1406.7 771.3 1407.8 773.2L1410.5 768Z" fill="#EDAC8F"/>
<path d="M1419.1 835.1C1411.2 872.1 1414.8 909.4 1409.2 946.8C1466.1 946.1 1484.6 945.8 1527.3 945.6C1513.7 904 1503.7 878 1486.5 834.1L1419.1 835.1Z" fill="black"/>
<path d="M1517.6 779L1532.2 795C1533.2 796.1 1534.1 797.3 1534.7 798.7C1534.8 799 1534.9 799.3 1534.9 799.6C1534.9 800.3 1534.5 800.9 1534.1 801.5C1526.2 812.6 1518.2 823.8 1508.1 833C1505.8 835.1 1503.3 837.2 1501.7 839.9C1500.1 842.6 1500.1 844.1 1501 847.9C1501 847.9 1500.1 852.1 1500.4 854.5L1501.1 862.1C1501.2 863 1501.2 863.9 1500.9 864.6C1500.3 865.7 1500.1 866.1 1499.3 867.1C1497.9 868.8 1497.9 871.8 1500 872.3C1499.9 872.3 1499.2 875 1499.2 875.3C1499.3 876.8 1500.3 877.8 1501.7 877.7C1502.5 877.6 1504.5 876.5 1505.2 877.2C1506.2 878.2 1507.3 879.1 1509.5 878.8C1509 879.9 1511.3 881.1 1512.5 881C1513.7 880.9 1514.6 880 1515.4 879.1C1517.7 876.7 1520.1 874.2 1522.4 871.8C1524 870.2 1525.6 868.3 1525.6 866C1525.6 864.5 1524.9 863.1 1524.2 861.8C1522 857.5 1520.3 853 1519 848.4L1517.8 844.6C1529.1 837.4 1540.6 830 1549.4 819.9C1552.3 816.6 1554.9 813 1558.4 810.6C1559.3 810 1560.3 809.4 1560.9 808.6C1561.8 807.3 1561.9 805.6 1561.7 804.1C1560.9 795.4 1555.8 787.8 1550.5 780.8C1546.4 775.4 1542.2 770.2 1537.9 765L1517.6 779Z" fill="#EDAC8F"/>
<path d="M1493.8 734.3C1502.5 729.9 1513.3 736.2 1520.9 742.3C1528.5 748.3 1534.2 756.4 1539.7 764.4C1531.9 769.6 1524.5 775.3 1517.4 781.3C1508.8 777.1 1500.5 772.1 1492.7 766.5C1492.7 766.5 1476.3 743.2 1493.8 734.3Z" fill="#F0C6E5"/>
<path d="M1463.6 704.5H1469.4C1469.7 704.5 1470 704.2 1470 703.9V698.6C1470 698.3 1469.7 698 1469.4 698H1463.6C1463.3 698 1463 698.3 1463 698.6V703.9C1463.1 704.3 1463.3 704.5 1463.6 704.5Z" fill="black"/>
<path d="M1466 703.1C1465.9 707.1 1460 715.6 1447.1 712.9" stroke="black" stroke-miterlimit="10"/>
<path d="M1445.6 715.1C1446.98 715.1 1448.1 713.981 1448.1 712.6C1448.1 711.219 1446.98 710.1 1445.6 710.1C1444.22 710.1 1443.1 711.219 1443.1 712.6C1443.1 713.981 1444.22 715.1 1445.6 715.1Z" fill="black"/>
<path d="M1408.2 773C1409.9 784.3 1410.7 795.8 1410.4 807.3" stroke="#E4908A" stroke-miterlimit="10" stroke-linecap="round" stroke-linejoin="round"/>
<path d="M1509.1 862.2C1509.2 863.2 1509.4 864.3 1508.9 865.2C1508.7 865.5 1508.5 865.8 1508.2 866.1C1506.5 868 1504.6 869.8 1502.6 871.3" stroke="#E4908A" stroke-miterlimit="10" stroke-linecap="round" stroke-linejoin="round"/>
<path d="M1515.9 860.8C1515.7 862.2 1516.4 863.7 1516 865.1C1515.8 865.7 1515.4 866.2 1515.1 866.7C1512.9 869.6 1508.6 874.4 1505.4 876.1" stroke="#E4908A" stroke-miterlimit="10" stroke-linecap="round" stroke-linejoin="round"/>
<path d="M1520.9 861.8C1520.7 863.2 1521.4 864.7 1521 866.1C1520.8 866.7 1520.4 867.2 1520.1 867.7C1517.9 870.6 1513.6 875.4 1510.4 877.1" stroke="#E4908A" stroke-miterlimit="10" stroke-linecap="round" stroke-linejoin="round"/>
<path d="M1398.9 733.3C1399.6 733.4 1400.3 733.6 1400.9 733.9C1401.7 734.2 1404.1 735.1 1404.5 735.4C1406.6 736.7 1405.4 740.4 1405.1 741.9" stroke="#E4908A" stroke-miterlimit="10" stroke-linecap="round" stroke-linejoin="round"/>
<path d="M1403.9 730.3C1406.6 730.6 1409.2 733 1409.5 733.3C1410.6 734.6 1410.4 737.3 1410.1 738.8" stroke="#E4908A" stroke-miterlimit="10" stroke-linecap="round" stroke-linejoin="round"/>
<path d="M1413 731.9C1413.2 732.1 1413.3 732.2 1413.4 732.3C1414.5 733.6 1414.3 736.3 1414 737.8" stroke="#E4908A" stroke-miterlimit="10" stroke-linecap="round" stroke-linejoin="round"/>
<path d="M1446.9 747.2C1446.5 757.4 1442.2 767.1 1436.5 775.4C1435.4 777 1438 778.5 1439.1 776.9C1445.1 768.1 1449.5 757.9 1449.9 747.2C1449.9 745.3 1446.9 745.3 1446.9 747.2Z" fill="#CC99CC"/>
<path d="M1474 865.3C1468.6 865.4 1463.2 865.5 1457.8 865.6C1456.8 865.6 1456.2 866.5 1456.4 867.5C1460.7 887.9 1465 908.3 1469.3 928.7C1470.5 934.5 1471.7 940.2 1473 946C1473.4 947.9 1476.3 947.1 1475.9 945.2C1471.6 924.8 1467.3 904.4 1463 884C1461.8 878.2 1460.6 872.5 1459.3 866.7C1458.8 867.3 1458.3 868 1457.9 868.6C1463.3 868.5 1468.7 868.4 1474.1 868.3C1476 868.2 1476 865.2 1474 865.3Z" fill="#CC99CC"/>
<g opacity="0.8" clip-path="url(#clip2)">
<mask id="mask1" mask-type="alpha" maskUnits="userSpaceOnUse" x="1401" y="836" width="120" height="113">
<path opacity="0.5" d="M1444 888C1443.7 887.9 1443.3 887.9 1443.1 888.1C1442.9 888.4 1442.9 888.8 1443 889.1C1444.3 893.4 1446.9 897.2 1450.4 899.8C1450.8 900.1 1451.2 900.3 1451.6 900.3C1452.2 900.3 1452.7 899.8 1453.1 899.3C1455.7 896.2 1457.8 892.6 1459.3 888.8C1459.7 887.8 1459.9 886.6 1459.2 885.9C1458.7 885.5 1457.9 885.6 1457.4 885.9C1456.8 886.3 1452.4 891.2 1452.4 891.2C1452.4 891.2 1446.7 888.6 1444 888Z" stroke="#CC99CC" stroke-miterlimit="10"/>
<path opacity="0.5" d="M1429.3 899.3C1429.1 899.2 1428.9 899.1 1428.7 899.3C1428.5 899.4 1428.5 899.7 1428.5 899.9C1428.6 902.5 1429.6 905.1 1431.3 907C1431.5 907.2 1431.7 907.4 1431.9 907.5C1432.3 907.6 1432.6 907.4 1432.9 907.1C1434.8 905.7 1436.5 903.9 1437.9 901.9C1438.2 901.4 1438.6 900.7 1438.2 900.2C1438 899.9 1437.5 899.8 1437.1 900C1436.7 900.2 1433.5 902.3 1433.5 902.3C1433.5 902.3 1430.7 900 1429.3 899.3Z" stroke="#CC99CC" stroke-miterlimit="10"/>
<path opacity="0.5" d="M1406.8 892.8C1406.5 892.7 1406.2 892.6 1406 892.7C1405.7 892.9 1405.7 893.2 1405.7 893.6C1405.9 897.5 1407.4 901.2 1409.8 904.1C1410 904.4 1410.3 904.7 1410.7 904.8C1411.2 904.9 1411.8 904.6 1412.2 904.2C1415 902.1 1417.5 899.5 1419.6 896.6C1420.1 895.9 1420.6 894.9 1420.1 894.2C1419.8 893.7 1419.1 893.6 1418.5 893.8C1417.9 894 1413.2 897.2 1413.2 897.2C1413.2 897.2 1409 893.8 1406.8 892.8Z" stroke="#CC99CC" stroke-miterlimit="10"/>
<path opacity="0.5" d="M1453.6 918.1C1453.4 918.1 1453.2 918 1453 918.2C1452.9 918.4 1452.9 918.6 1453 918.8C1453.8 921.3 1455.3 923.6 1457.4 925.1C1457.6 925.3 1457.8 925.4 1458.1 925.4C1458.5 925.4 1458.8 925.1 1459 924.8C1460.5 923 1461.8 920.9 1462.7 918.6C1462.9 918 1463.1 917.3 1462.6 916.9C1462.3 916.6 1461.8 916.7 1461.5 916.9C1461.2 917.1 1458.6 920 1458.6 920C1458.6 920 1455.2 918.4 1453.6 918.1Z" stroke="#CC99CC" stroke-miterlimit="10"/>
<path opacity="0.5" d="M1444.79 931.888C1444.36 931.736 1443.92 931.696 1443.66 932.009C1443.3 932.312 1443.36 932.877 1443.44 933.22C1444.51 938.692 1447.31 943.65 1451.36 947.153C1451.77 947.526 1452.18 947.9 1452.74 947.95C1453.52 948.021 1454.13 947.405 1454.74 946.9C1458.3 943.417 1461.26 939.207 1463.57 934.714C1464.13 933.533 1464.6 932.008 1463.78 931.15C1463.17 930.534 1462.27 930.564 1461.56 930.948C1460.86 931.332 1454.87 936.834 1454.87 936.834C1454.87 936.834 1447.95 932.847 1444.79 931.888Z" stroke="#CC99CC" stroke-miterlimit="10"/>
<path opacity="0.5" d="M1506.6 904.1C1506.4 904.1 1506.2 904 1506 904.2C1505.9 904.4 1505.9 904.6 1506 904.8C1506.8 907.3 1508.3 909.6 1510.4 911.1C1510.6 911.3 1510.8 911.4 1511.1 911.4C1511.5 911.4 1511.8 911.1 1512 910.8C1513.5 909 1514.8 906.9 1515.7 904.6C1515.9 904 1516.1 903.3 1515.6 902.9C1515.3 902.6 1514.8 902.7 1514.5 902.9C1514.2 903.1 1511.6 906 1511.6 906C1511.6 906 1508.2 904.4 1506.6 904.1Z" stroke="#CC99CC" stroke-miterlimit="10"/>
<path opacity="0.5" d="M1486 888.6C1485.7 888.5 1485.4 888.5 1485.2 888.7C1485 888.9 1485.1 889.3 1485.2 889.5C1486.3 893 1488.4 896.1 1491.3 898.3C1491.6 898.5 1491.9 898.7 1492.3 898.7C1492.8 898.7 1493.2 898.3 1493.6 897.9C1495.7 895.3 1497.5 892.4 1498.7 889.3C1499 888.5 1499.2 887.5 1498.6 886.9C1498.2 886.5 1497.5 886.6 1497.1 886.9C1496.6 887.2 1493 891.2 1493 891.2C1493 891.2 1488.2 889.1 1486 888.6Z" stroke="#CC99CC" stroke-miterlimit="10"/>
<path opacity="0.5" d="M1444.6 869.1C1444.4 869.1 1444.2 869 1444 869.2C1443.9 869.4 1443.9 869.6 1444 869.8C1444.8 872.3 1446.3 874.6 1448.4 876.1C1448.6 876.3 1448.8 876.4 1449.1 876.4C1449.5 876.4 1449.8 876.1 1450 875.8C1451.5 874 1452.8 871.9 1453.7 869.6C1453.9 869 1454.1 868.3 1453.6 867.9C1453.3 867.6 1452.8 867.7 1452.5 867.9C1452.2 868.1 1449.6 871 1449.6 871C1449.6 871 1446.2 869.4 1444.6 869.1Z" stroke="#CC99CC" stroke-miterlimit="10"/>
<path opacity="0.5" d="M1488.6 861.1C1488.4 861.1 1488.2 861 1488 861.2C1487.9 861.4 1487.9 861.6 1488 861.8C1488.8 864.3 1490.3 866.6 1492.4 868.1C1492.6 868.3 1492.8 868.4 1493.1 868.4C1493.5 868.4 1493.8 868.1 1494 867.8C1495.5 866 1496.8 863.9 1497.7 861.6C1497.9 861 1498.1 860.3 1497.6 859.9C1497.3 859.6 1496.8 859.7 1496.5 859.9C1496.2 860.1 1493.6 863 1493.6 863C1493.6 863 1490.2 861.4 1488.6 861.1Z" stroke="#CC99CC" stroke-miterlimit="10"/>
<path opacity="0.5" d="M1425.5 838.3C1425.3 838.2 1425 838.2 1424.8 838.4C1424.6 838.6 1424.7 838.9 1424.8 839.1C1425.7 842.2 1427.6 844.9 1430.1 846.8C1430.4 847 1430.6 847.2 1431 847.2C1431.4 847.2 1431.8 846.8 1432.1 846.5C1434 844.3 1435.5 841.7 1436.6 839C1436.9 838.3 1437.1 837.4 1436.5 836.9C1436.1 836.6 1435.6 836.6 1435.2 836.9C1434.8 837.2 1431.6 840.7 1431.6 840.7C1431.6 840.7 1427.5 838.7 1425.5 838.3Z" stroke="#CC99CC" stroke-miterlimit="10"/>
<path opacity="0.5" d="M1472.6 838.1C1472.4 838.1 1472.2 838 1472 838.2C1471.9 838.4 1471.9 838.6 1472 838.8C1472.8 841.3 1474.3 843.6 1476.4 845.1C1476.6 845.3 1476.8 845.4 1477.1 845.4C1477.5 845.4 1477.8 845.1 1478 844.8C1479.5 843 1480.8 840.9 1481.7 838.6C1481.9 838 1482.1 837.3 1481.6 836.9C1481.3 836.6 1480.8 836.7 1480.5 836.9C1480.2 837.1 1477.6 840 1477.6 840C1477.6 840 1474.2 838.4 1472.6 838.1Z" stroke="#CC99CC" stroke-miterlimit="10"/>
<path opacity="0.5" d="M1467.4 874.5C1467.2 874.4 1466.9 874.4 1466.7 874.6C1466.5 874.8 1466.6 875.1 1466.6 875.4C1467.4 878.6 1469.2 881.5 1471.7 883.6C1472 883.8 1472.2 884 1472.6 884C1473.1 884 1473.4 883.6 1473.8 883.3C1475.9 881.1 1477.6 878.5 1478.8 875.7C1479.1 875 1479.4 874.1 1478.8 873.6C1478.4 873.3 1477.9 873.3 1477.4 873.5C1477 873.7 1473.5 877.2 1473.5 877.2C1473.5 877.2 1469.4 875 1467.4 874.5Z" stroke="#CC99CC" stroke-miterlimit="10"/>
<path opacity="0.5" d="M1418.8 872.3C1418.5 872.2 1418.1 872 1417.8 872.3C1417.5 872.5 1417.5 873 1417.5 873.3C1418 877.9 1419.9 882.2 1422.9 885.5C1423.2 885.8 1423.6 886.2 1424 886.3C1424.6 886.4 1425.2 886 1425.7 885.6C1428.9 883 1431.8 879.8 1434 876.2C1434.6 875.3 1435.1 874.1 1434.5 873.3C1434.1 872.8 1433.3 872.7 1432.6 873C1432 873.3 1426.6 877.3 1426.6 877.3C1426.6 877.3 1421.3 873.5 1418.8 872.3Z" stroke="#CC99CC" stroke-miterlimit="10"/>
<path opacity="0.5" d="M1402.8 845.3C1402.5 845.2 1402.1 845 1401.8 845.3C1401.5 845.5 1401.5 846 1401.5 846.3C1402 850.9 1403.9 855.2 1406.9 858.5C1407.2 858.8 1407.6 859.2 1408 859.3C1408.6 859.4 1409.2 859 1409.7 858.6C1412.9 856 1415.8 852.8 1418 849.2C1418.6 848.3 1419.1 847.1 1418.5 846.3C1418.1 845.8 1417.3 845.7 1416.6 846C1416 846.3 1410.6 850.3 1410.6 850.3C1410.6 850.3 1405.3 846.5 1402.8 845.3Z" stroke="#CC99CC" stroke-miterlimit="10"/>
<path opacity="0.5" d="M1425 857.1C1424.8 857 1424.6 856.9 1424.4 857.1C1424.2 857.2 1424.2 857.5 1424.1 857.8C1423.9 860.8 1424.6 863.6 1426 865.7C1426.1 865.9 1426.3 866.1 1426.6 866.2C1426.9 866.3 1427.3 866 1427.7 865.7C1429.8 864 1431.8 862 1433.4 859.7C1433.8 859.1 1434.2 858.3 1433.9 857.8C1433.7 857.5 1433.3 857.4 1432.9 857.6C1432.5 857.8 1429 860.4 1429 860.4C1429 860.4 1426.4 857.9 1425 857.1Z" stroke="#CC99CC" stroke-miterlimit="10"/>
<path opacity="0.5" d="M1473 908C1472.7 907.9 1472.3 907.9 1472.1 908.1C1471.9 908.4 1471.9 908.8 1472 909.1C1473.3 913.4 1475.9 917.2 1479.4 919.8C1479.8 920.1 1480.2 920.3 1480.6 920.3C1481.2 920.3 1481.7 919.8 1482.1 919.3C1484.7 916.2 1486.8 912.6 1488.3 908.8C1488.7 907.8 1488.9 906.6 1488.2 905.9C1487.7 905.5 1486.9 905.6 1486.3 905.9C1485.7 906.3 1481.3 911.2 1481.3 911.2C1481.3 911.2 1475.7 908.6 1473 908Z" stroke="#CC99CC" stroke-miterlimit="10"/>
<path opacity="0.5" d="M1508.76 939.612C1508.55 939.544 1508.26 939.544 1508.12 939.68C1507.98 939.885 1507.98 940.158 1508.05 940.362C1508.98 943.295 1510.84 945.886 1513.36 947.659C1513.64 947.864 1513.93 948 1514.22 948C1514.65 948 1515.01 947.659 1515.29 947.318C1517.16 945.204 1518.66 942.749 1519.74 940.158C1520.03 939.476 1520.17 938.657 1519.67 938.18C1519.31 937.907 1518.74 937.975 1518.3 938.18C1517.87 938.453 1514.72 941.794 1514.72 941.794C1514.72 941.794 1510.7 940.021 1508.76 939.612Z" stroke="#CC99CC" stroke-miterlimit="10"/>
<path opacity="0.5" d="M1471.39 932.805C1471.18 932.702 1470.9 932.656 1470.74 932.767C1470.56 932.945 1470.52 933.215 1470.56 933.428C1471 936.473 1472.42 939.334 1474.61 941.492C1474.86 941.74 1475.12 941.922 1475.4 941.968C1475.82 942.038 1476.23 941.76 1476.57 941.471C1478.76 939.688 1480.64 937.511 1482.13 935.13C1482.52 934.504 1482.79 933.72 1482.38 933.167C1482.07 932.839 1481.49 932.813 1481.03 932.945C1480.56 933.144 1476.9 935.927 1476.9 935.927C1476.9 935.927 1473.23 933.524 1471.39 932.805Z" stroke="#CC99CC" stroke-miterlimit="10"/>
<path opacity="0.5" d="M1463.57 891.943C1463.45 891.88 1463.27 891.852 1463.17 891.92C1463.06 892.03 1463.04 892.195 1463.06 892.327C1463.33 894.199 1464.2 895.958 1465.55 897.285C1465.7 897.438 1465.86 897.55 1466.04 897.578C1466.3 897.621 1466.55 897.45 1466.76 897.272C1468.1 896.176 1469.26 894.838 1470.17 893.373C1470.42 892.988 1470.59 892.506 1470.33 892.166C1470.14 891.964 1469.78 891.948 1469.5 892.029C1469.21 892.152 1466.96 893.863 1466.96 893.863C1466.96 893.863 1464.7 892.385 1463.57 891.943Z" stroke="#CC99CC" stroke-miterlimit="10"/>
<path opacity="0.5" d="M1492 924C1491.7 923.9 1491.3 923.9 1491.1 924.1C1490.9 924.4 1490.9 924.8 1491 925.1C1492.3 929.4 1494.9 933.2 1498.4 935.8C1498.8 936.1 1499.2 936.3 1499.6 936.3C1500.2 936.3 1500.7 935.8 1501.1 935.3C1503.7 932.2 1505.8 928.6 1507.3 924.8C1507.7 923.8 1507.9 922.6 1507.2 921.9C1506.7 921.5 1505.9 921.6 1505.3 921.9C1504.7 922.3 1500.3 927.2 1500.3 927.2C1500.3 927.2 1494.7 924.6 1492 924Z" stroke="#CC99CC" stroke-miterlimit="10"/>
<path opacity="0.5" d="M1470.5 853.7C1470.2 853.6 1469.9 853.6 1469.7 853.8C1469.5 854 1469.6 854.4 1469.7 854.7C1470.8 858.3 1473 861.5 1476 863.7C1476.3 863.9 1476.6 864.1 1477 864.1C1477.5 864.1 1477.9 863.7 1478.3 863.2C1480.5 860.6 1482.3 857.6 1483.6 854.3C1483.9 853.5 1484.1 852.4 1483.5 851.9C1483.1 851.5 1482.4 851.6 1481.9 851.9C1481.4 852.2 1477.7 856.4 1477.7 856.4C1477.7 856.4 1472.7 854.2 1470.5 853.7Z" stroke="#CC99CC" stroke-miterlimit="10"/>
<path opacity="0.5" d="M1447 843C1446.7 842.9 1446.3 842.9 1446.1 843.1C1445.9 843.4 1445.9 843.8 1446 844.1C1447.3 848.4 1449.9 852.2 1453.4 854.8C1453.8 855.1 1454.2 855.3 1454.6 855.3C1455.2 855.3 1455.7 854.8 1456.1 854.3C1458.7 851.2 1460.8 847.6 1462.3 843.8C1462.7 842.8 1462.9 841.6 1462.2 840.9C1461.7 840.5 1460.9 840.6 1460.3 840.9C1459.7 841.3 1455.3 846.2 1455.3 846.2C1455.3 846.2 1449.7 843.6 1447 843Z" stroke="#CC99CC" stroke-miterlimit="10"/>
<path opacity="0.5" d="M1418.43 917.141C1417.99 917.026 1417.55 917.026 1417.22 917.37C1416.89 917.714 1417 918.288 1417.11 918.746C1418.76 924.596 1422.29 929.757 1426.82 933.312C1427.26 933.656 1427.81 934 1428.36 934C1429.13 934 1429.8 933.312 1430.35 932.624C1433.77 928.38 1436.52 923.563 1438.51 918.288C1438.95 917.026 1439.39 915.306 1438.4 914.388C1437.74 913.815 1436.75 913.93 1435.97 914.388C1435.2 914.847 1429.47 921.614 1429.47 921.614C1429.47 921.614 1421.96 917.944 1418.43 917.141Z" stroke="#CC99CC" stroke-miterlimit="10"/>
</mask>
<g mask="url(#mask1)">
<path d="M1418.9 836C1411 873 1414.6 910.3 1409 947.7C1465.9 947 1484.4 946.7 1527.1 946.5C1513.5 904.9 1503.5 878.9 1486.3 835L1418.9 836Z" fill="#CC99CC"/>
</g>
</g>
</g>
<rect x="1399" y="929" width="140" height="19" rx="9.5" fill="url(#paint4_linear)"/>
</g>
<defs>
<linearGradient id="paint0_linear" x1="1456" y1="-8.99993" x2="478.5" y2="1142.5" gradientUnits="userSpaceOnUse">
<stop stop-color="#F08449"/>
<stop offset="1" stop-color="#F08449"/>
</linearGradient>
<linearGradient id="paint1_linear" x1="251" y1="-218.5" x2="23" y2="900.5" gradientUnits="userSpaceOnUse">
<stop offset="0.270833" stop-color="#F97F3C"/>
<stop offset="0.447917" stop-color="#F38143"/>
<stop offset="0.875" stop-color="#F96B1E"/>
</linearGradient>
<linearGradient id="paint2_linear" x1="1470" y1="1132.5" x2="1904.69" y2="446.195" gradientUnits="userSpaceOnUse">
<stop stop-color="#A95020" stop-opacity="0"/>
<stop offset="0.890625" stop-color="#FF5A00" stop-opacity="0.6"/>
</linearGradient>
<linearGradient id="paint3_linear" x1="1225.99" y1="934.317" x2="1225.99" y2="936.67" gradientUnits="userSpaceOnUse">
<stop stop-color="#ED8247" stop-opacity="0"/>
<stop offset="1" stop-color="#ED8247"/>
</linearGradient>
<linearGradient id="paint4_linear" x1="1469.99" y1="934.317" x2="1469.99" y2="936.67" gradientUnits="userSpaceOnUse">
<stop stop-color="#ED8247" stop-opacity="0"/>
<stop offset="1" stop-color="#ED8247"/>
</linearGradient>
<clipPath id="clip0">
<rect width="270.9" height="289.1" fill="white" transform="translate(1097 658)"/>
</clipPath>
<clipPath id="clip1">
<rect width="174.6" height="277" fill="white" transform="translate(1387 670)"/>
</clipPath>
<clipPath id="clip2">
<rect width="124.8" height="112.7" fill="white" transform="translate(1401 835)"/>
</clipPath>
</defs>
</svg>
