<svg xmlns="http://www.w3.org/2000/svg" width="190" height="28" fill="none" viewBox="0 0 190 28">
    <g clip-path="url(#clip0)">
        <path fill="#F08449" d="M3.659 15.806v5.134c-.118.06-.296.12-.532.12-.236.06-.473.06-.709.06-.532 0-.886-.12-1.063-.3-.178-.178-.355-.477-.355-.954V7.149c0-.298.06-.477.236-.656.178-.18.355-.299.65-.359.532-.179 1.123-.298 1.832-.358.709-.06 1.359-.12 1.95-.12 2.127 0 3.663.478 4.727 1.374 1.004.895 1.536 2.15 1.536 3.701 0 1.553-.532 2.806-1.536 3.702-1.005.955-2.541 1.373-4.55 1.373H3.66zm2.009-2.15c1.122 0 2.009-.238 2.659-.716.65-.477.945-1.253.945-2.209 0-1.015-.295-1.731-.945-2.149-.591-.478-1.477-.716-2.6-.716-.355 0-.768 0-1.123.06-.354 0-.709.06-1.004.06v5.67h2.068zM17.603 20.94c-.118.06-.295.12-.532.12-.236.06-.472.06-.709.06-.531 0-.886-.12-1.063-.3-.236-.178-.355-.477-.355-.954V7.149c0-.298.06-.477.237-.656.177-.18.354-.299.65-.359.532-.179 1.122-.298 1.831-.358.71-.06 1.419-.12 2.128-.12 2.127 0 3.722.419 4.726 1.314 1.064.836 1.537 2.09 1.537 3.642 0 1.075-.296 2.03-.828 2.806-.59.776-1.359 1.313-2.422 1.731.413.478.768.956 1.123 1.493.354.477.709.955 1.063 1.373.355.418.65.836.886 1.194.296.358.473.657.65.896-.059.358-.236.656-.531.835-.296.18-.591.299-.887.299-.413 0-.709-.12-.945-.299s-.473-.477-.71-.776l-3.13-4.597h-2.719v5.373zm2.305-7.582c1.063 0 1.89-.239 2.54-.716.591-.478.946-1.134.946-2.09 0-.895-.296-1.612-.946-2.09-.65-.477-1.536-.716-2.777-.716-.354 0-.768 0-1.122.06-.355.12-.71.18-1.005.18v5.372h2.364zM73.381 19.15c1.004 0 1.773-.24 2.245-.657.473-.418.71-.955.71-1.672 0-.597-.178-1.075-.591-1.433-.355-.358-.946-.656-1.773-.895l-1.832-.597c-.59-.18-1.063-.418-1.536-.657-.473-.239-.886-.537-1.182-.836-.354-.298-.59-.716-.768-1.134-.177-.418-.236-.955-.236-1.493 0-1.313.472-2.328 1.418-3.045.945-.776 2.245-1.134 3.9-1.134.65 0 1.3.06 1.831.18.591.119 1.064.238 1.477.417.414.18.769.418 1.005.657.236.239.354.537.354.836 0 .298-.059.537-.236.716-.118.18-.295.358-.473.478-.413-.299-.945-.597-1.595-.776-.65-.24-1.418-.359-2.186-.359-.886 0-1.596.18-2.068.538-.473.358-.71.836-.71 1.433 0 .477.178.895.532 1.194.355.298.887.597 1.714.776l1.418.418c1.36.418 2.423.955 3.19 1.671.769.717 1.123 1.672 1.123 2.926 0 .656-.118 1.253-.354 1.79-.236.538-.59 1.016-1.064 1.433-.472.418-1.063.717-1.772.896-.71.239-1.537.299-2.423.299-.768 0-1.418-.06-2.068-.18-.59-.119-1.182-.298-1.595-.537-.473-.239-.768-.477-1.064-.716-.236-.299-.354-.597-.354-.896 0-.358.118-.597.295-.836.177-.238.414-.417.71-.537.413.358.945.716 1.595 1.015.59.537 1.418.716 2.363.716zM82.48 20.582c-.236-.239-.413-.597-.413-1.015V7.388c0-.418.118-.776.413-1.015.237-.238.591-.358 1.005-.358h8.095c.059.12.177.239.236.418.06.18.06.358.06.597 0 .358-.06.657-.237.836-.177.179-.414.298-.71.298h-6.262v4.12h6.204c.059.12.177.239.236.418.06.179.06.358.06.597 0 .358-.06.656-.237.835-.178.18-.414.299-.71.299h-5.494v4.478h7.03c.06.12.12.238.178.418.06.179.118.358.118.597 0 .358-.059.656-.236.835-.177.18-.414.299-.709.299h-7.563c-.473-.06-.768-.18-1.064-.478zM106.765 21c-.296.12-.591.12-1.005.12-.472 0-.827-.06-1.181-.24-.355-.178-.65-.477-.946-.954l-4.018-7.105c-.177-.298-.354-.657-.531-1.015-.178-.358-.355-.716-.532-1.015-.177-.358-.355-.656-.473-1.015-.177-.298-.295-.597-.413-.835h-.119c.06.835.119 1.79.178 2.746.059.955.059 1.91.059 2.806v6.447c-.118.06-.296.06-.473.12-.236.06-.473.06-.65.06-.473 0-.827-.12-1.063-.299-.237-.179-.355-.478-.355-.895V6.373c.177-.179.414-.298.71-.418.294-.119.649-.179.944-.179.473 0 .828.06 1.182.24.355.178.65.477.946.954l4.077 7.105c.177.298.354.657.531 1.015.178.358.355.716.532 1.015.177.298.355.656.473 1.015.177.298.295.597.413.835h.119c-.119-1.253-.178-2.507-.237-3.701V5.955c.118-.06.296-.06.532-.119.236-.06.414-.06.709-.06.473 0 .827.12 1.064.299.236.179.354.477.354.895v13.612l-.827.418zM117.223 8.164v12.777c-.118.06-.295.119-.472.119-.237.06-.473.06-.709.06-.532 0-.887-.12-1.064-.299-.236-.179-.295-.478-.295-.955V8.164h-4.373c-.059-.119-.177-.238-.236-.418-.059-.179-.059-.358-.059-.597 0-.358.059-.656.236-.835.177-.18.414-.299.709-.299h10.636c.059.12.118.239.177.418.059.18.059.358.059.597 0 .776-.295 1.134-.945 1.134h-3.664zM131.759 17.239h-5.968l-1.182 3.76c-.118.06-.295.12-.473.12-.177.06-.354.06-.59.06-.414 0-.769-.12-1.005-.298-.236-.18-.414-.478-.414-.836 0-.18 0-.359.06-.538.059-.179.118-.358.177-.597l.886-2.686c.355-1.075.768-2.269 1.241-3.463.414-1.194.886-2.388 1.3-3.582.413-1.194.827-2.209 1.122-3.045.178-.12.414-.179.769-.298.354-.12.709-.12 1.063-.12.473 0 .886.06 1.3.18.355.119.65.358.768.716.355.955.768 2.03 1.182 3.224.414 1.194.827 2.447 1.3 3.701.413 1.254.827 2.508 1.241 3.702.413 1.194.768 2.328 1.063 3.283-.118.18-.354.299-.591.418-.236.12-.531.18-.827.18-.414 0-.768-.06-.945-.24-.178-.179-.355-.477-.473-.895l-1.004-2.746zm-3.014-9.135c-.177.418-.354.956-.532 1.493-.177.537-.413 1.134-.591 1.791-.236.597-.413 1.254-.649 1.85-.237.657-.414 1.254-.591 1.851h4.786c-.237-.656-.414-1.313-.65-1.97-.237-.656-.414-1.313-.65-1.91-.177-.597-.414-1.194-.591-1.732-.177-.537-.355-1.014-.414-1.373h-.118zM142.926 8.164v12.777c-.118.06-.296.119-.473.119-.236.06-.472.06-.709.06-.532 0-.886-.12-1.063-.299-.237-.179-.296-.478-.296-.955V8.164h-4.313c-.059-.119-.177-.238-.236-.418-.06-.179-.06-.358-.06-.597 0-.358.06-.656.237-.835.177-.18.413-.299.709-.299h10.635c.059.12.119.239.178.418.059.18.059.358.059.597 0 .776-.296 1.134-.946 1.134h-3.722zM152.262 21.06c-.237.06-.473.06-.709.06-.532 0-.887-.12-1.064-.299-.177-.179-.355-.478-.355-.955V5.956c.119-.06.296-.06.532-.12.237-.06.473-.06.709-.06.473 0 .828.12 1.064.299.236.179.354.477.354.955v13.85c-.118.06-.295.12-.531.18zM170.519 13.478c0 1.253-.177 2.388-.531 3.403-.355.955-.887 1.79-1.537 2.447-.65.657-1.418 1.135-2.304 1.493-.886.358-1.832.477-2.895.477-1.064 0-2.009-.179-2.896-.477-.886-.299-1.654-.836-2.304-1.493-.65-.656-1.123-1.492-1.536-2.447-.355-.956-.532-2.09-.532-3.403 0-1.314.177-2.388.591-3.403.354-.956.886-1.791 1.536-2.448s1.418-1.194 2.305-1.493c.886-.358 1.831-.477 2.836-.477 1.004 0 1.95.179 2.836.477.886.359 1.654.836 2.304 1.493.65.657 1.182 1.492 1.536 2.448.414.955.591 2.09.591 3.403zm-2.659 0c0-1.851-.413-3.224-1.24-4.24-.828-1.014-1.95-1.432-3.368-1.432-1.359 0-2.482.478-3.309 1.433-.827.955-1.241 2.388-1.241 4.179 0 1.85.414 3.224 1.241 4.239.827.955 1.95 1.433 3.309 1.433 1.418 0 2.54-.478 3.368-1.433.827-.956 1.24-2.329 1.24-4.18zM185.35 21c-.295.12-.591.12-1.004.12-.473 0-.828-.06-1.182-.24-.355-.178-.65-.477-.946-.954l-4.017-7.105c-.178-.298-.355-.657-.532-1.015-.177-.358-.355-.716-.532-1.015-.177-.358-.354-.656-.473-1.015-.177-.298-.295-.597-.413-.835h-.118c.059.835.118 1.79.177 2.746.059.955.059 1.91.059 2.806v6.447c-.118.06-.296.06-.473.12-.236.06-.472.06-.65.06-.472 0-.827-.12-1.063-.299-.237-.179-.355-.478-.355-.895V6.373c.177-.179.414-.298.709-.418.296-.119.65-.179.946-.179.472 0 .827.06 1.181.24.355.178.65.477.946.954l4.077 7.105c.177.298.354.657.531 1.015.178.358.355.716.532 1.015.178.358.355.656.473 1.015.177.298.295.597.414.835h.118c-.118-1.253-.178-2.507-.237-3.701V5.955c.119-.06.296-.06.532-.119.236-.06.414-.06.709-.06.473 0 .827.12 1.064.299.236.179.354.477.354.895v13.612l-.827.418z"/>
        <path stroke="#F08449" stroke-linecap="round" stroke-linejoin="round" stroke-miterlimit="10" stroke-width="2.5" d="M39.524 13.477h16.072"/>
    </g>
    <path stroke="#F08449" stroke-linecap="round" stroke-linejoin="round" stroke-miterlimit="10" stroke-width="2.5" d="M56.525 21.284h-1.95l-.177 3.283-4.727-3.283H38.563c-4.195 0-7.563-3.463-7.563-7.642C31 9.462 34.368 6 38.563 6h17.962c4.136 0 7.563 3.403 7.563 7.642-.059 4.179-3.427 7.642-7.563 7.642z"/>
    <defs>
        <clipPath id="clip0">
            <path fill="#fff" d="M0 0H185V20H0z" transform="translate(1 5)"/>
        </clipPath>
    </defs>
</svg>
