<svg xmlns="http://www.w3.org/2000/svg" width="88" height="28" fill="none" viewBox="0 0 88 28">
    <path stroke="#F08449" stroke-linecap="round" stroke-linejoin="round" stroke-miterlimit="10" stroke-width="2.5" d="M10 13h2M27 12v2M19 12v2M27.525 20.284h-1.95l-.177 3.283-4.727-3.283H9.563C5.368 20.284 2 16.82 2 12.642 2 8.462 5.368 5 9.563 5h17.962c4.136 0 7.564 3.403 7.564 7.642-.06 4.179-3.428 7.642-7.564 7.642z"/>
    <path fill="#F08449" stroke="#F08449" stroke-miterlimit="10" stroke-width=".3" d="M49.385 6.052c.123.181.185.363.185.605s-.062.423-.185.605c-.123.181-.308.242-.554.242h-6.464v4.417h6.095c.246 0 .43.06.492.242.123.181.185.363.185.605s-.062.423-.185.605c-.123.181-.308.242-.492.242h-6.095v4.78h6.649c.246 0 .43.06.554.242.123.181.184.363.184.605s-.061.423-.184.605c-.123.06-.308.181-.554.181h-7.142c-.616 0-.985-.12-1.231-.302-.246-.242-.308-.605-.308-1.15V7.262c0-.545.123-.908.308-1.15.246-.242.615-.302 1.231-.302h6.957c.308 0 .431.06.554.242zM56.574 5.81c2.031 0 3.632.544 4.679 1.573 1.046 1.028 1.6 2.722 1.6 4.961v1.15c0 2.238-.554 3.872-1.6 4.961-1.047 1.029-2.648 1.573-4.618 1.573h-3.324c-.616 0-.985-.12-1.232-.302-.246-.242-.307-.605-.307-1.15V7.262c0-.545.123-.968.307-1.15.247-.242.616-.302 1.232-.302h3.263zm-.308 12.463c1.539 0 2.647-.363 3.386-1.15.739-.786 1.108-2.056 1.108-3.81v-.848c0-.908-.061-1.633-.246-2.239-.185-.605-.431-1.15-.8-1.573-.37-.423-.8-.726-1.355-.907-.554-.182-1.231-.303-2.032-.303h-2.585v10.77h2.524v.06zM69.61 5.81c2.032 0 3.633.544 4.68 1.573 1.046 1.028 1.6 2.722 1.6 4.961v1.15c0 2.238-.554 3.872-1.6 4.961-1.17 1.029-2.71 1.573-4.68 1.573h-3.324c-.615 0-.985-.12-1.231-.302-.246-.242-.308-.605-.308-1.15V7.262c0-.545.123-.968.308-1.15.246-.242.616-.302 1.231-.302h3.325zm-.307 12.463c1.54 0 2.647-.363 3.386-1.15.739-.786 1.108-2.056 1.108-3.81v-.848c0-.908-.061-1.633-.246-2.239-.185-.605-.431-1.15-.8-1.573-.37-.423-.862-.665-1.416-.847-.554-.181-1.232-.302-2.032-.302h-2.586v10.77h2.586zM77.355 18.092c.369 0 .738.12.984.363.247.242.37.544.37.968 0 .423-.123.726-.37.968-.246.242-.615.363-.984.363-.37 0-.74-.121-.986-.363S76 19.786 76 19.423s.123-.726.37-.968c.246-.242.615-.363.984-.363z"/>
</svg>
